<mxfile host="app.diagrams.net" modified="2024-02-08T21:30:04.525Z" agent="Mozilla/5.0 (Windows NT 10.0; Win64; x64) AppleWebKit/537.36 (KHTML, like Gecko) Chrome/121.0.0.0 Safari/537.36" version="23.1.1" etag="gB2OqGTVmLqhTCGF-Tj3" type="github">
  <diagram name="Sayfa -1" id="sLQtu35nGZm28vXa-dDa">
    <mxGraphModel>
      <root>
        <mxCell id="0" />
        <mxCell id="1" parent="0" />
      </root>
    </mxGraphModel>
  </diagram>
</mxfile>
